<?xml version="1.0" encoding="iso-8859-1"?>
<!-- Generator: Adobe Illustrator 19.0.0, SVG Export Plug-In . SVG Version: 6.00 Build 0)  -->
<svg version="1.1" id="Capa_1" xmlns="http://www.w3.org/2000/svg" xmlns:xlink="http://www.w3.org/1999/xlink" x="0px" y="0px"
	 viewBox="0 0 456.768 456.768" style="enable-background:new 0 0 456.768 456.768;" xml:space="preserve">
<g>
	<g id="XMLID_838_">
		<path id="XMLID_839_" d="M218.293,251.388c-2.365,2.799-5.088,5.193-8.081,7.141v139.608c0,11.786,9.554,21.34,21.34,21.34
			s21.34-9.555,21.34-21.34v-95.784c-0.13,0.001-0.26,0.008-0.39,0.008c-4.106,0-8.164-0.684-12.061-2.031
			C222.756,294.215,210.159,274.916,218.293,251.388z"/>
		<path id="XMLID_944_" d="M103.643,180.509l75.28,60.879c7.6,6.146,18.805,5.027,25.011-2.645
			c6.175-7.637,4.992-18.834-2.646-25.01l-65.846-53.25c3.136-9.755,11.697-36.029,16.013-45.336c2.696-5.812,4.963-9.7,6.853-11.75
			v50.964l55.015,44.491c8.639,6.986,13.287,17.097,13.656,27.415l26.051-54.832v-68.799c3.4,2.147,6.017,7.127,7.28,10.974
			c3.456,10.53,5.3,47.032,5.698,58.34l-30.31,87.672c-3.211,9.288,1.718,19.411,10.997,22.618
			c9.298,3.215,19.414-1.726,22.618-10.997l31.382-90.774c1.313-3.796,0.982-6.469,0.806-11.24
			c-0.588-15.841-2.45-51.638-7.397-66.711C287.793,83.29,270.013,66.1,249.979,66.1l0,0c-9.86,16.035-27.566,26.753-47.731,26.753
			c-19.383,0-37.169-9.989-47.409-26.251c-21.661,3.449-31.319,24.243-35.649,33.579c-6.046,13.036-17.105,47.561-21.348,61.226
			C95.682,168.362,97.981,175.93,103.643,180.509z"/>
		<circle id="XMLID_946_" cx="202.248" cy="36.857" r="36.857"/>
		<path id="XMLID_947_" d="M428.594,373.692H278.326c-7.285,0-13.191,5.906-13.191,13.191v10.789
			c0,18.038-14.676,32.714-32.714,32.714s-32.713-14.675-32.713-32.714v-10.789c0-7.285-5.905-13.191-13.191-13.191h-11.918
			c4.1-4.502,6.259-10.716,5.383-17.222l-8.909-66.209l14.841-26.024c-6.931-0.797-13.568-3.551-19.027-7.967l-17.494-14.148
			l-18.969,33.262c-2.319,4.065-3.236,8.779-2.613,13.418l9.871,73.36c0.603,4.478,2.566,8.432,5.401,11.531H28.174
			c-7.285-0.001-13.191,5.905-13.191,13.19s5.906,13.191,13.191,13.191h145.201c1.263,31.478,27.265,56.694,59.046,56.694
			c31.782,0,57.785-25.216,59.047-56.694h137.125c7.285,0,13.191-5.906,13.191-13.191S435.879,373.692,428.594,373.692z"/>
	</g>
</g>
<g>
</g>
<g>
</g>
<g>
</g>
<g>
</g>
<g>
</g>
<g>
</g>
<g>
</g>
<g>
</g>
<g>
</g>
<g>
</g>
<g>
</g>
<g>
</g>
<g>
</g>
<g>
</g>
<g>
</g>
</svg>
