<?xml version="1.0" encoding="iso-8859-1"?>
<!-- Generator: Adobe Illustrator 19.0.0, SVG Export Plug-In . SVG Version: 6.00 Build 0)  -->
<svg version="1.1" id="Capa_1" xmlns="http://www.w3.org/2000/svg" xmlns:xlink="http://www.w3.org/1999/xlink" x="0px" y="0px"
	 viewBox="0 0 460.905 460.905" style="enable-background:new 0 0 460.905 460.905;" xml:space="preserve">
<g>
	<g id="XMLID_938_">
		<path id="XMLID_939_" d="M361.256,63.481h-50.363c-10.895,0-19.728,8.832-19.728,19.728v357.968
			c0,10.895,8.833,19.728,19.728,19.728h50.363c10.895,0,19.728-8.832,19.728-19.728V83.208
			C380.984,72.313,372.151,63.481,361.256,63.481z"/>
		<path id="XMLID_1053_" d="M178.271,56.385l45.374,24.378c1.466,0.787,3.042,1.161,4.597,1.161c3.467,0,6.824-1.859,8.58-5.127
			c2.543-4.734,0.768-10.633-3.966-13.176l-45.374-24.378c-4.734-2.543-10.633-0.767-13.176,3.966
			C171.762,47.942,173.537,53.842,178.271,56.385z"/>
		<path id="XMLID_1054_" d="M246.498,66.493c1.371,4.06,5.158,6.621,9.218,6.621c1.031,0,2.081-0.166,3.113-0.514
			c5.091-1.718,7.826-7.239,6.107-12.331L246.829,6.621c-1.719-5.092-7.241-7.827-12.331-6.107
			c-5.091,1.718-7.826,7.239-6.107,12.331L246.498,66.493z"/>
		<path id="XMLID_1061_" d="M298.658,6.194c-5.114-1.656-10.599,1.147-12.255,6.259l-14.427,44.551
			c-1.656,5.113,1.147,10.599,6.259,12.255c0.996,0.323,2.006,0.476,3,0.476c4.105,0,7.922-2.619,9.255-6.735l14.427-44.551
			C306.572,13.336,303.77,7.85,298.658,6.194z"/>
		<path id="XMLID_1062_" d="M146.179,339.606l-0.498,17.284l-57.084,72.535c-6.642,8.44-5.185,20.667,3.255,27.309
			c8.442,6.644,20.669,5.182,27.309-3.255l60.424-76.78l-4.65-11.913L146.179,339.606z"/>
		<circle id="XMLID_1069_" cx="238.183" cy="130.021" r="33.587"/>
		<path id="XMLID_1079_" d="M264.859,289.626l-46.325-31.566l0.716-61.631l10.255,41.27l15.392-29.052
			c5.866-11.073,1.646-24.805-9.427-30.671l-35.753-18.943c-8.713-4.616-19.07-2.984-25.948,3.315
			c-0.521,0.235-1.036,0.497-1.54,0.792l-60.335,35.356c-3.395,1.99-5.95,5.146-7.188,8.881L80.75,279.61
			c-2.817,8.495,1.785,17.666,10.28,20.483c8.514,2.823,17.679-1.824,20.483-10.28l1.441-4.345c0.204,0.765,0.471,1.514,0.769,2.253
			c1.104,2.736,2.83,5.267,5.201,7.343c48.976,42.885,62.93,55.105,68.293,59.801c2.412,8.815,22.394,81.845,25.095,91.72
			c2.835,10.361,13.53,16.46,23.889,13.625c10.36-2.834,16.46-13.53,13.625-23.889c-2.708-9.899-27.281-99.303-27.281-99.303
			c-1.083-2.778-2.939-5.487-5.304-7.56l-72.694-63.656l29.19,16.02c-4.164-7.13-5.074-15.429-3.812-20.188
			c1.71-6.449,14.832-55.952,16.732-63.12l-1.694,67.107c-0.061,5.339,2.522,10.475,7.08,13.581l54.563,37.21
			c7.347,5.007,17.459,3.157,22.518-4.267C274.166,304.747,272.256,294.666,264.859,289.626z M121.947,258.357l11.601-34.983
			l9.286-5.442L121.947,258.357z"/>
	</g>
</g>
<g>
</g>
<g>
</g>
<g>
</g>
<g>
</g>
<g>
</g>
<g>
</g>
<g>
</g>
<g>
</g>
<g>
</g>
<g>
</g>
<g>
</g>
<g>
</g>
<g>
</g>
<g>
</g>
<g>
</g>
</svg>
