<?xml version="1.0" encoding="iso-8859-1"?>
<!-- Generator: Adobe Illustrator 19.0.0, SVG Export Plug-In . SVG Version: 6.00 Build 0)  -->
<svg version="1.1" id="Capa_1" xmlns="http://www.w3.org/2000/svg" xmlns:xlink="http://www.w3.org/1999/xlink" x="0px" y="0px"
	 viewBox="0 0 459.442 459.442" style="enable-background:new 0 0 459.442 459.442;" xml:space="preserve">
<g>
	<g id="XMLID_850_">
		<path id="XMLID_851_" d="M202.357,320.097l7.963,24.267l-10.348,88.599c-1.52,13.014,7.797,24.796,20.812,26.316
			c13,1.52,24.794-7.787,26.315-20.812l9.214-78.891l-16.828-22.037L202.357,320.097z"/>
		<path id="XMLID_1189_" d="M340.186,359.961L340.186,359.961L340.186,359.961c-0.001,0.001-37.71,28.796-37.71,28.796
			c8.559,10.925,23.33,12.034,33.253,4.457C346.144,385.261,348.135,370.372,340.186,359.961z"/>
		<path id="XMLID_1190_" d="M277.178,281.856l-85.861-42.245l1.711,11.595c2.224,15.079-4.519,29.316-16.178,37.455
			c0,16.157-11.708,24.758-23.186,24.758c-12.786,0-23.187-10.401-23.187-23.187v-3.098c-14.603-11.702-14.345-26.168-17.174-45.396
			c-1.568,1.744-2.53,4.044-2.53,6.575v41.92c0,20.259,14.124,37.271,33.039,41.736V449.59c0,5.441,4.411,9.852,9.852,9.852
			c5.441,0,9.852-4.411,9.852-9.852V331.969c10.717-2.53,19.895-9.083,25.837-17.98c3.496-5.235,5.866-11.279,6.777-17.786
			l55.192,25.931l37.885-28.93l0,0C285.703,288.613,283.28,284.725,277.178,281.856z"/>
		<circle id="XMLID_1197_" cx="234.49" cy="40.974" r="40.974"/>
		<path id="XMLID_1198_" d="M334.334,210.473l-57.008-16.32l-14.629-33.898l6.173-29.362c3.145-14.96-6.433-29.636-21.392-32.781
			l-48.305-10.156c-14.96-3.145-29.636,6.433-32.781,21.392l-2.912,13.85l27.859-14.698l-61.6,53.958
			c-4.911,4.422-7.298,11.015-6.33,17.578l11.728,79.709c1.589,10.778,11.637,18.268,22.444,16.673
			c10.817-1.596,18.264-11.654,16.673-22.444l-9.981-67.654l55.88-50.309c-3.927,5.959-32.664,49.571-36.047,54.704l6.728,45.605
			l53.342,12.036l4.957-23.578c2.307,2.234,5.149,3.902,8.311,4.807l66.009,18.897c10.493,3.005,21.441-3.066,24.448-13.565
			C350.904,224.423,344.831,213.478,334.334,210.473z"/>
	</g>
</g>
<g>
</g>
<g>
</g>
<g>
</g>
<g>
</g>
<g>
</g>
<g>
</g>
<g>
</g>
<g>
</g>
<g>
</g>
<g>
</g>
<g>
</g>
<g>
</g>
<g>
</g>
<g>
</g>
<g>
</g>
</svg>
