<?xml version="1.0" encoding="iso-8859-1"?>
<!-- Generator: Adobe Illustrator 19.0.0, SVG Export Plug-In . SVG Version: 6.00 Build 0)  -->
<svg version="1.1" id="Capa_1" xmlns="http://www.w3.org/2000/svg" xmlns:xlink="http://www.w3.org/1999/xlink" x="0px" y="0px"
	 viewBox="0 0 460.475 460.475" style="enable-background:new 0 0 460.475 460.475;" xml:space="preserve">
<g>
	<g id="XMLID_29_">
		<path id="XMLID_312_" d="M234.342,58.719c4.407,1.509,9.004,2.274,13.662,2.274s9.255-0.765,13.662-2.274
			c2.146-0.735,4.331-1.083,6.48-1.083c3.343,0,6.592,0.858,9.473,2.408c4.908-6.304,7.839-14.224,7.839-22.832
			C285.458,16.66,268.798,0,248.247,0s-37.211,16.66-37.211,37.211c0,8.524,2.873,16.373,7.693,22.647
			c2.796-1.436,5.922-2.223,9.134-2.223C230.01,57.635,232.196,57.984,234.342,58.719z"/>
		<path id="XMLID_443_" d="M338.779,136.926c-0.111-22.056-17.497-42.276-43.672-42.276l1.144,3.342
			c3.578,10.45-1.993,21.822-12.443,25.4c-11.55,3.955-23.596,5.959-35.804,5.959c-12.208,0-24.254-2.005-35.804-5.959
			c-10.443-3.575-16.021-14.951-12.443-25.4l1.622-4.737l-27.389-3.202l21.165-25.427c6.344-7.622,5.308-18.942-2.313-25.286
			c-7.622-6.344-18.943-5.309-25.286,2.313l-42.367,50.899c-4.215,5.064-5.318,12.03-2.873,18.148
			c2.444,6.119,8.044,10.406,14.588,11.171l63.35,7.407l0.008,309.652c0,11.899,9.646,21.545,21.545,21.545
			s21.545-9.646,21.545-21.545V271.366c0-2.569,2.083-4.652,4.652-4.652s4.652,2.083,4.652,4.652V438.93
			c0,11.899,9.646,21.545,21.545,21.545c11.899,0,21.545-9.646,21.545-21.545l-0.383-302.106c-0.003-2.074,1.676-3.758,3.751-3.761
			c2.074-0.003,3.759,1.675,3.762,3.749c0,0.097-0.002,0.195-0.006,0.295l0.662,131.906c0.05,9.886,8.078,17.864,17.953,17.864
			c0.03,0,0.062,0,0.092,0c9.916-0.05,17.914-8.129,17.864-18.045L338.779,136.926z"/>
		<path id="XMLID_469_" d="M248.004,109.352c9.911,0,19.822-1.627,29.326-4.881c-3.062-8.943-6.124-17.887-9.186-26.83
			c-6.527,2.235-13.334,3.352-20.14,3.352s-13.613-1.117-20.14-3.352c-3.062,8.943-6.124,17.887-9.186,26.83
			C228.182,107.725,238.093,109.352,248.004,109.352z"/>
	</g>
</g>
<g>
</g>
<g>
</g>
<g>
</g>
<g>
</g>
<g>
</g>
<g>
</g>
<g>
</g>
<g>
</g>
<g>
</g>
<g>
</g>
<g>
</g>
<g>
</g>
<g>
</g>
<g>
</g>
<g>
</g>
</svg>
