<?xml version="1.0" encoding="iso-8859-1"?>
<!-- Generator: Adobe Illustrator 19.0.0, SVG Export Plug-In . SVG Version: 6.00 Build 0)  -->
<svg version="1.1" id="Capa_1" xmlns="http://www.w3.org/2000/svg" xmlns:xlink="http://www.w3.org/1999/xlink" x="0px" y="0px"
	 viewBox="0 0 464.168 464.168" style="enable-background:new 0 0 464.168 464.168;" xml:space="preserve">
<g>
	<g id="XMLID_108_">
		<path id="XMLID_834_" d="M293.125,310.118l-8.672,16.319c-2.517-26.814-25.145-47.87-52.606-47.87
			c-2.328,0-4.617,0.167-6.867,0.461l-12.618-37.983c-5.913,6.812-15.219,10.107-24.45,8.003l-13.051-2.974
			c2.367,4.853,3.299,10.405,2.45,15.94l20.023-2.287l0.434,1.23l-26.433,21.986l-10.321,34.599l43.631-36.291l1.359,4.091
			c-16.1,9.067-27.004,26.315-27.004,46.072c0,29.14,23.707,52.847,52.847,52.847c12.223,0,23.48-4.182,32.442-11.175
			c1.052,3.894,3.636,7.364,7.479,9.406c7.367,3.916,16.513,1.115,20.426-6.25l14.059-26.456l-6.33-31.249L293.125,310.118z
			 M231.847,364.261c-18.112,0-32.847-14.735-32.847-32.847c0-10.882,5.324-20.541,13.499-26.521l9.858,29.674
			c1.74,5.238,7.396,8.079,12.643,6.337c5.241-1.742,8.079-7.402,6.337-12.643l-9.862-29.685c0.124-0.001,0.247-0.01,0.372-0.01
			c18.112,0,32.847,14.735,32.847,32.847S249.959,364.261,231.847,364.261z"/>
		<circle id="XMLID_835_" cx="379.582" cy="147.316" r="26.087"/>
		<path id="XMLID_836_" d="M461.508,156.174c-4.274-5.482-12.183-6.462-17.666-2.188l-42.877,33.425l-27.549-1.61
			c-0.693-0.768-1.449-1.495-2.295-2.151l-24.836-19.256c-7.692-5.963-18.761-4.562-24.725,3.129
			c-6.537,8.431-49.48,63.82-55.773,71.936l0.038-0.001c-3.852,5.383-3.836,12.868,0.524,18.268l44.831,55.517l10.564,52.15
			c1.661,8.194,9.645,13.458,17.802,11.805c8.177-1.656,13.461-9.626,11.805-17.802l-11.297-55.769
			c-0.481-2.377-1.529-4.603-3.052-6.491l-47.149-58.389l37.57,30.024l19.221-24.791l-13.124-40.006l27.29,44.426l0,0
			c2.258,3.565,6.145,5.757,10.357,5.85l51.283,1.15c6.979,0.153,12.708-5.386,12.861-12.307
			c0.153-6.948-5.355-12.708-12.307-12.861l-43.529-0.959l0,0l-25.611-40.445l24.047,22.453l26.316,1.537
			c3,0.179,6.03-0.734,8.473-2.638l46.617-36.34C464.802,169.567,465.782,161.657,461.508,156.174z"/>
		<path id="XMLID_1015_" d="M107.784,307.08l9.059-30.367l-1.418-3.42l-25.751-9.885l-11.233-4.312l-10.968,21.545
			c-4.648-1.341-9.551-2.075-14.625-2.075C23.707,278.566,0,302.273,0,331.414c0,29.141,23.707,52.847,52.847,52.847
			c25.123,0,46.192-17.627,51.528-41.159c-5.079-10.56-1.665-19.014-0.159-24.064c-2.843-11.798-9.65-22.059-18.933-29.3
			l8.436-16.572L107.784,307.08z M52.847,364.261C34.735,364.261,20,349.525,20,331.414c0-18.111,14.735-32.847,32.847-32.847
			c1.798,0,3.561,0.151,5.281,0.43l-14.193,27.88c-1.578,3.1-1.432,6.797,0.386,9.763s5.047,4.773,8.525,4.773h31.286
			C79.892,354.65,67.473,364.261,52.847,364.261z M69.159,321.414l6.785-13.329c3.715,3.678,6.557,8.235,8.189,13.329H69.159z"/>
		<path id="XMLID_1017_" d="M218.189,220.958l7.027-1.462c5.407-1.125,8.878-6.42,7.753-11.828
			c-1.125-5.407-6.417-8.874-11.828-7.753l-15.102,3.142C212.604,206.873,217.067,213.505,218.189,220.958z"/>
		<path id="XMLID_1019_" d="M156.01,243.884c-15.545-5.967-11.389-4.702-20.699-6.823c-8.674-1.977-13.196-7.847-13.912-14.62
			l-5.06-48.596l16.748,44.164c1.484,3.914,4.829,6.825,8.911,7.755l48.692,11.096c6.74,1.534,13.432-2.686,14.965-9.41
			c1.534-6.731-2.679-13.431-9.41-14.965l-42.158-9.607l-14.372-37.898l15.076,21.065l4.271-11.185
			c3.672-9.616-1.147-20.388-10.763-24.06l-31.05-11.856c-9.616-3.672-20.388,1.147-24.06,10.764
			C68.62,214.054,69.66,210.69,68.916,214.965c-0.945,5.436-0.452,10.902,1.273,15.924h-1.575c-5.545,0-10,4.538-10,10
			c0,5.615,4.598,10,10,10h21.491l42.184,16.025l-17.962,60.213c-2.368,7.938,2.147,16.294,10.086,18.662
			s16.294-2.148,18.662-10.086l21.934-73.526C167.249,254.664,163.328,246.693,156.01,243.884z"/>
		<circle id="XMLID_1020_" cx="150.634" cy="107.496" r="27.59"/>
	</g>
</g>
<g>
</g>
<g>
</g>
<g>
</g>
<g>
</g>
<g>
</g>
<g>
</g>
<g>
</g>
<g>
</g>
<g>
</g>
<g>
</g>
<g>
</g>
<g>
</g>
<g>
</g>
<g>
</g>
<g>
</g>
</svg>
