<?xml version="1.0" encoding="iso-8859-1"?>
<!-- Generator: Adobe Illustrator 19.0.0, SVG Export Plug-In . SVG Version: 6.00 Build 0)  -->
<svg version="1.1" id="Capa_1" xmlns="http://www.w3.org/2000/svg" xmlns:xlink="http://www.w3.org/1999/xlink" x="0px" y="0px"
	 viewBox="0 0 461.01 461.01" style="enable-background:new 0 0 461.01 461.01;" xml:space="preserve">
<g>
	<g id="XMLID_450_">
		<circle id="XMLID_468_" cx="230.887" cy="37.746" r="37.746"/>
		<path id="XMLID_475_" d="M182.204,164.546l0.008,274.609c0,12.071,9.785,21.855,21.856,21.855
			c12.071,0,21.856-9.785,21.856-21.855c0,0,0-141.89,0-169.917c0-2.637,2.138-4.775,4.775-4.775c2.575,0,4.661,2.087,4.661,4.661
			c0,27.754,0,170.031,0,170.031c0,12.071,9.785,21.855,21.856,21.855c12.071,0,21.856-9.785,21.856-21.855l-0.397-259.42
			C271.509,181.24,227.275,189.093,182.204,164.546z"/>
		<path id="XMLID_476_" d="M322.721,132.809c-0.118-23.646-19.452-42.884-43.099-42.884H195.65
			c9.465,13.394,44.033,58.421,83.023,61.667v-18.398c0-2.067,1.646-3.757,3.712-3.813c2.066-0.055,3.802,1.545,3.911,3.609
			c0,0.001,0,0.001,0,0.002l0.673,133.803c0.051,10.028,8.194,18.121,18.21,18.121c0.031,0,0.062,0,0.093,0
			c10.059-0.051,18.172-8.246,18.121-18.304L322.721,132.809z"/>
		<path id="XMLID_477_" d="M138.565,128.192c-0.378,3.364-0.22-6.262-0.948,138.419c-0.051,10.059,8.063,18.253,18.121,18.304
			c0.031,0,0.061,0,0.093,0c10.015,0,18.16-8.094,18.21-18.121l0.536-106.727C162.233,152.306,149.982,141.946,138.565,128.192z"/>
	</g>
</g>
<g>
</g>
<g>
</g>
<g>
</g>
<g>
</g>
<g>
</g>
<g>
</g>
<g>
</g>
<g>
</g>
<g>
</g>
<g>
</g>
<g>
</g>
<g>
</g>
<g>
</g>
<g>
</g>
<g>
</g>
</svg>
